# xmcd
# 
# Track frame offsets:
#     187
#     26274
#     41624
#     60557
#     78649
#     110987
#     116649
#     131362
#     149934
#     167362
#     189499
#     207707
#     220849
#     239049
#     265342
#     283474
# 
# Disc length: 4159
# 
# Revision: 2
# Processed by: cddbd v1.5.2PL0 Copyright (c) Steve Scherf et al.
# Submitted via: fre:ac v1.0.31
# 
DISCID=05103d10
DTITLE=冨田勲 - 森の幻想 The Best Of Tomita Vol.2
DYEAR=1994
DGENRE=Classical
TTITLE0=美女と野獣の対話
TTITLE1=パゴダの女王リドロネット
TTITLE2=妖精の園
TTITLE3=アラベスク第1番
TTITLE4=パントマイム
TTITLE5=卵のからをつけたひなの踊り
TTITLE6=ビドロ
TTITLE7=ブラジル風バッハ第2番、第4番
TTITLE8=豪雨
TTITLE9=日の出
TTITLE10=雨の庭
TTITLE11=ゴリウォーグのケークウォーク
TTITLE12=夜明け
TTITLE13=月の光
TTITLE14=カスチェイ王の魔の踊り
TTITLE15=キエフの大門
EXTD=
EXTT0=
EXTT1=
EXTT2=
EXTT3=
EXTT4=
EXTT5=
EXTT6=
EXTT7=
EXTT8=
EXTT9=
EXTT10=
EXTT11=
EXTT12=
EXTT13=
EXTT14=
EXTT15=
PLAYORDER=
